<svg width="46" height="46" viewBox="0 0 46 46" fill="none" xmlns="http://www.w3.org/2000/svg">
<g id="001-medal" clip-path="url(#clip0_6_620)">
<g id="Group">
<path id="Vector" d="M40.4284 40.7271L34.9843 39.529L33.297 44.8557C33.1756 45.2387 32.6569 45.2949 32.4565 44.9467L25.7215 33.2471C29.0391 32.5283 31.9909 30.8246 34.2574 28.4568L40.9279 40.0458C41.1281 40.3934 40.8202 40.8134 40.4284 40.7271Z" fill="#FD646F"/>
<path id="Vector_2" d="M40.4285 40.727L35.3964 39.6194C35.163 39.5681 34.9291 39.7032 34.8569 39.9309L33.2971 44.8555C33.1757 45.2385 32.657 45.2946 32.4566 44.9464L26.6868 34.9227L25.7216 33.2469C29.0392 32.528 31.991 30.8244 34.2575 28.4565L35.2153 30.1194L40.9281 40.0456C41.1281 40.3934 40.8202 40.8132 40.4285 40.727Z" fill="#FD646F"/>
<path id="Vector_3" d="M40.4284 40.7267L35.3967 39.6193C35.163 39.5686 34.9293 39.7034 34.8573 39.9306L35.3989 38.2476C35.472 38.0206 35.7059 37.8866 35.9387 37.9383L40.2687 38.9008L40.9281 40.0461C41.1285 40.3933 40.82 40.8136 40.4284 40.7267Z" fill="#FC4755"/>
<path id="Vector_4" d="M19.6058 33.1066L12.7643 44.9892C12.5639 45.3374 12.0452 45.2812 11.9238 44.8982L10.3639 39.9736C10.2918 39.7458 10.0577 39.6107 9.82442 39.6621L4.79239 40.7696C4.4006 40.8558 4.09276 40.4359 4.29291 40.0882L10.6558 29.0337C13.0313 31.2858 16.2356 32.5517 19.6058 33.1066Z" fill="#FD646F"/>
<g id="Group_2">
<path id="Vector_5" d="M11.5563 30.6781L5.88639 40.5284L4.79266 40.7693C4.40087 40.8557 4.09295 40.4357 4.29309 40.088L9.70925 30.6781L11.1739 28.127C11.5683 28.5003 11.9802 28.8551 12.4097 29.1886L11.5563 30.6781Z" fill="#FC4755"/>
<path id="Vector_6" d="M13.4317 43.8291L12.764 44.9892C12.5635 45.3374 12.0454 45.2819 11.9235 44.8986L10.3635 39.974C10.2915 39.7459 10.0578 39.6111 9.82414 39.6619L11.5494 39.2823C11.7827 39.231 12.0167 39.3661 12.0888 39.5938L13.4317 43.8291Z" fill="#FC4755"/>
<path id="Vector_7" d="M10.8098 28.7524L15.3095 30.7816L19.6058 33.1066L18.4538 35.1061C15.2415 34.454 12.261 32.9588 9.79782 30.7567C9.76826 30.7308 9.73871 30.7048 9.70915 30.678L10.8098 28.7524Z" fill="#FC4755"/>
<path id="Vector_8" d="M35.2152 30.1196L34.2574 28.4568L29.1893 30.6937L25.7215 33.2471L26.1113 33.9238L27.0684 35.5861L32.4565 44.9466C32.6569 45.2948 33.1756 45.2386 33.297 44.8556L33.6401 43.7724L28.2846 34.444C30.8772 33.5418 33.2374 32.0741 35.2152 30.1196Z" fill="#FC4755"/>
</g>
<path id="Vector_9" d="M39.3728 16.813C39.3728 21.3318 37.5948 25.4358 34.7012 28.4568C32.4347 30.8246 29.4829 32.5282 26.1653 33.2471C25.0192 33.4953 23.8305 33.6259 22.6104 33.6259C21.6794 33.6259 20.7669 33.5499 19.8775 33.4036C16.68 32.8775 13.7864 31.4434 11.47 29.3739C11.3444 29.2627 11.2215 29.1497 11.0996 29.0339C10.6674 28.6245 10.2573 28.1918 9.8694 27.7388C9.49811 27.3035 9.14899 26.8486 8.82296 26.3762C7.84395 24.9597 7.07644 23.3839 6.56569 21.696C6.09928 20.1508 5.84806 18.512 5.84806 16.8131C5.84806 7.52777 13.3532 0 22.6104 0C24.3034 0 25.9381 0.251957 27.4778 0.720775C29.1615 1.23125 30.7316 2.00106 32.1447 2.98396C32.6157 3.311 33.0692 3.66114 33.5024 4.03445C34.0824 4.53098 34.6273 5.06741 35.1344 5.638C37.7713 8.60894 39.3728 12.5238 39.3728 16.813Z" fill="#FAA515"/>
<path id="Vector_10" d="M22.6104 28.8551C29.2412 28.8551 34.6164 23.4636 34.6164 16.8128C34.6164 10.162 29.2412 4.77051 22.6104 4.77051C15.9797 4.77051 10.6044 10.162 10.6044 16.8128C10.6044 23.4636 15.9797 28.8551 22.6104 28.8551Z" fill="#FAD207"/>
<path id="Vector_11" d="M34.6162 16.813C34.6162 23.4635 29.2409 28.8551 22.6104 28.8551C15.9799 28.8551 10.6046 23.4635 10.6046 16.813C10.6046 16.3108 10.6351 15.8162 10.6951 15.3308C11.4229 21.2828 16.4805 25.8907 22.6104 25.8907C28.7403 25.8907 33.7979 21.2828 34.5257 15.3308C34.5858 15.8163 34.6162 16.3109 34.6162 16.813Z" fill="#FAA515"/>
<path id="Vector_12" fill-rule="evenodd" clip-rule="evenodd" d="M22.6104 4.771C15.9799 4.771 10.6046 10.1626 10.6046 16.8131C10.6046 23.4637 15.9799 28.8553 22.6104 28.8553C29.2409 28.8553 34.6162 23.4637 34.6162 16.8131C34.6162 10.1626 29.2409 4.771 22.6104 4.771ZM22.6104 27.4656C16.7539 27.4656 11.99 22.6873 11.99 16.8131C11.99 10.939 16.7539 6.16064 22.6104 6.16064C28.4669 6.16064 33.2308 10.939 33.2308 16.8131C33.2308 22.6873 28.4669 27.4656 22.6104 27.4656Z" fill="#FAF063"/>
<path id="Vector_13" d="M23.0252 10.1538L24.6745 13.5228C24.7416 13.6601 24.8723 13.7552 25.0236 13.7769L28.7301 14.3094C29.1094 14.3639 29.2611 14.8301 28.9866 15.0974L26.2982 17.7151C26.1891 17.8214 26.1394 17.9746 26.1653 18.1247L26.8059 21.826C26.8714 22.2042 26.4738 22.4925 26.1347 22.3129L22.8266 20.5599C22.6914 20.4882 22.5294 20.4882 22.3942 20.5599L19.0862 22.3129C18.747 22.4926 18.3494 22.2043 18.4149 21.826L19.0555 18.1247C19.0814 17.9746 19.0318 17.8214 18.9226 17.7151L16.2343 15.0974C15.9597 14.83 16.1114 14.3639 16.4908 14.3094L20.1972 13.7769C20.3484 13.7552 20.4791 13.6601 20.5464 13.5228L22.1956 10.1538C22.3646 9.80876 22.8563 9.80876 23.0252 10.1538Z" fill="#FAA515"/>
</g>
</g>
<defs>
<clipPath id="clip0_6_620">
<rect width="45.221" height="45.221" fill="white"/>
</clipPath>
</defs>
</svg>
