<svg width="46" height="46" viewBox="0 0 46 46" fill="none" xmlns="http://www.w3.org/2000/svg">
<g id="003-work-in-progress" clip-path="url(#clip0_6_661)">
<g id="Group">
<path id="Vector" d="M23.631 0.17749H23.1648L22.2549 1.38768L22.198 2.73804L22.6302 3.7874L23.1078 4.02622L23.6309 4.099C24.3872 3.76956 24.9161 3.01582 24.9161 2.13816C24.9161 1.2605 24.3873 0.506933 23.631 0.17749Z" fill="#60B9FE"/>
<path id="Vector_2" d="M22.3459 2.1382C22.3459 1.26062 22.8747 0.506882 23.631 0.177351C23.3697 0.0635037 23.0813 0 22.778 0C21.5972 0 20.6398 0.957326 20.6398 2.1382C20.6398 3.31907 21.5972 4.27639 22.778 4.27639C23.0813 4.27639 23.3697 4.21289 23.631 4.09895C22.8747 3.7696 22.3459 3.01585 22.3459 2.1382Z" fill="#1CA8FF"/>
</g>
</g>
<defs>
<clipPath id="clip0_6_661">
<rect width="45.221" height="45.221" fill="white" transform="translate(0.16748)"/>
</clipPath>
</defs>
</svg>
